<svg width="96" height="96" xmlns="http://www.w3.org/2000/svg" xmlns:xlink="http://www.w3.org/1999/xlink" xml:space="preserve" overflow="hidden"><g transform="translate(-300 -213)"><path d="M378 233 361 233 361 228C361 224.1 357.9 221 354 221L342 221C338.1 221 335 224.1 335 228L335 233 318 233C315.8 233 314 234.8 314 237L314 241 382 241 382 237C382 234.8 380.2 233 378 233ZM341 228C341 227.4 341.4 227 342 227L354 227C354.6 227 355 227.4 355 228L355 233 341 233 341 228Z"/><path d="M320 297C320 299.2 321.8 301 324 301L372 301C374.2 301 376 299.2 376 297L376 245 320 245 320 297ZM361 251 367 251 367 295 361 295 361 251ZM345 251 351 251 351 295 345 295 345 251ZM329 251 335 251 335 295 329 295 329 251Z"/></g></svg>